<svg xmlns="http://www.w3.org/2000/svg" class="plt-container" width="600.0" height="400.0">
  <style type="text/css">
  .plt-container {
   font-family: Lucida Grande, sans-serif;
   user-select: none;
   -webkit-user-select: none;
   -moz-user-select: none;
   -ms-user-select: none;
}
text {
   text-rendering: optimizeLegibility;
}
#pR4ygUK .plot-title {
   fill: #474747;
   font-family: Lucida Grande, sans-serif;
   font-size: 16.0px;
   font-weight: normal;
   font-style: normal;   
}
#pR4ygUK .plot-subtitle {
   fill: #474747;
   font-family: Lucida Grande, sans-serif;
   font-size: 15.0px;
   font-weight: normal;
   font-style: normal;   
}
#pR4ygUK .plot-caption {
   fill: #474747;
   font-family: Lucida Grande, sans-serif;
   font-size: 13.0px;
   font-weight: normal;
   font-style: normal;   
}
#pR4ygUK .legend-title {
   fill: #474747;
   font-family: Lucida Grande, sans-serif;
   font-size: 15.0px;
   font-weight: normal;
   font-style: normal;   
}
#pR4ygUK .legend-item {
   fill: #474747;
   font-family: Lucida Grande, sans-serif;
   font-size: 13.0px;
   font-weight: normal;
   font-style: normal;   
}
#pR4ygUK .axis-title-x {
   fill: #474747;
   font-family: Lucida Grande, sans-serif;
   font-size: 15.0px;
   font-weight: normal;
   font-style: normal;   
}
#pR4ygUK .axis-text-x {
   fill: #474747;
   font-family: Lucida Grande, sans-serif;
   font-size: 13.0px;
   font-weight: normal;
   font-style: normal;   
}
#dMkJuxN .axis-tooltip-text-x {
   fill: #ffffff;
   font-family: Lucida Grande, sans-serif;
   font-size: 13.0px;
   font-weight: normal;
   font-style: normal;   
}
#pR4ygUK .axis-title-y {
   fill: #474747;
   font-family: Lucida Grande, sans-serif;
   font-size: 15.0px;
   font-weight: normal;
   font-style: normal;   
}
#pR4ygUK .axis-text-y {
   fill: #474747;
   font-family: Lucida Grande, sans-serif;
   font-size: 13.0px;
   font-weight: normal;
   font-style: normal;   
}
#dMkJuxN .axis-tooltip-text-y {
   fill: #ffffff;
   font-family: Lucida Grande, sans-serif;
   font-size: 13.0px;
   font-weight: normal;
   font-style: normal;   
}
#pR4ygUK .facet-strip-text-x {
   fill: #474747;
   font-family: Lucida Grande, sans-serif;
   font-size: 13.0px;
   font-weight: normal;
   font-style: normal;   
}
#pR4ygUK .facet-strip-text-y {
   fill: #474747;
   font-family: Lucida Grande, sans-serif;
   font-size: 13.0px;
   font-weight: normal;
   font-style: normal;   
}
#dMkJuxN .tooltip-text {
   fill: #474747;
   font-family: Lucida Grande, sans-serif;
   font-size: 13.0px;
   font-weight: normal;
   font-style: normal;   
}
#dMkJuxN .tooltip-title {
   fill: #474747;
   font-family: Lucida Grande, sans-serif;
   font-size: 13.0px;
   font-weight: bold;
   font-style: normal;   
}
#dMkJuxN .tooltip-label {
   fill: #474747;
   font-family: Lucida Grande, sans-serif;
   font-size: 13.0px;
   font-weight: bold;
   font-style: normal;   
}

  </style>
  <g id="pR4ygUK">
    <rect x="0.0" y="0.0" height="400.0" width="600.0" stroke="rgb(71,71,71)" stroke-opacity="1.0" stroke-width="0.0" fill="rgb(255,255,255)" fill-opacity="1.0">
    </rect>
    <g transform="translate(23.0 10.0 ) ">
      <g transform="translate(21.961210910936405 344.0 ) ">
        <line x1="54.50387890890636" y1="-0.0" x2="54.50387890890636" y2="-344.0" stroke="rgb(233,233,233)" stroke-opacity="1.0" stroke-width="1.0">
        </line>
        <line x1="163.51163672671908" y1="-0.0" x2="163.51163672671908" y2="-344.0" stroke="rgb(233,233,233)" stroke-opacity="1.0" stroke-width="1.0">
        </line>
        <line x1="272.5193945445318" y1="-0.0" x2="272.5193945445318" y2="-344.0" stroke="rgb(233,233,233)" stroke-opacity="1.0" stroke-width="1.0">
        </line>
        <line x1="381.5271523623445" y1="-0.0" x2="381.5271523623445" y2="-344.0" stroke="rgb(233,233,233)" stroke-opacity="1.0" stroke-width="1.0">
        </line>
        <line x1="490.5349101801572" y1="-0.0" x2="490.5349101801572" y2="-344.0" stroke="rgb(233,233,233)" stroke-opacity="1.0" stroke-width="1.0">
        </line>
        <g transform="translate(54.50387890890636 0.0 ) ">
          <line stroke-width="1.0" stroke="rgb(71,71,71)" stroke-opacity="1.0" x2="0.0" y2="4.0">
          </line>
          <g transform="translate(0.0 7.0 ) ">
            <text class="axis-text-x" text-anchor="middle" dy="0.7em">
            -0.4
            </text>
          </g>
        </g>
        <g transform="translate(163.51163672671908 0.0 ) ">
          <line stroke-width="1.0" stroke="rgb(71,71,71)" stroke-opacity="1.0" x2="0.0" y2="4.0">
          </line>
          <g transform="translate(0.0 7.0 ) ">
            <text class="axis-text-x" text-anchor="middle" dy="0.7em">
            -0.2
            </text>
          </g>
        </g>
        <g transform="translate(272.5193945445318 0.0 ) ">
          <line stroke-width="1.0" stroke="rgb(71,71,71)" stroke-opacity="1.0" x2="0.0" y2="4.0">
          </line>
          <g transform="translate(0.0 7.0 ) ">
            <text class="axis-text-x" text-anchor="middle" dy="0.7em">
            0.0
            </text>
          </g>
        </g>
        <g transform="translate(381.5271523623445 0.0 ) ">
          <line stroke-width="1.0" stroke="rgb(71,71,71)" stroke-opacity="1.0" x2="0.0" y2="4.0">
          </line>
          <g transform="translate(0.0 7.0 ) ">
            <text class="axis-text-x" text-anchor="middle" dy="0.7em">
            0.2
            </text>
          </g>
        </g>
        <g transform="translate(490.5349101801572 0.0 ) ">
          <line stroke-width="1.0" stroke="rgb(71,71,71)" stroke-opacity="1.0" x2="0.0" y2="4.0">
          </line>
          <g transform="translate(0.0 7.0 ) ">
            <text class="axis-text-x" text-anchor="middle" dy="0.7em">
            0.4
            </text>
          </g>
        </g>
        <line x1="0.0" y1="0.0" x2="545.0387890890636" y2="0.0" stroke-width="1.0" stroke="rgb(71,71,71)" stroke-opacity="1.0">
        </line>
      </g>
      <g transform="translate(21.961210910936405 0.0 ) ">
        <line x1="0.0" y1="328.3636363636364" x2="545.0387890890636" y2="328.3636363636364" stroke="rgb(233,233,233)" stroke-opacity="1.0" stroke-width="1.0">
        </line>
        <line x1="0.0" y1="276.24242424242425" x2="545.0387890890636" y2="276.24242424242425" stroke="rgb(233,233,233)" stroke-opacity="1.0" stroke-width="1.0">
        </line>
        <line x1="0.0" y1="224.12121212121212" x2="545.0387890890636" y2="224.12121212121212" stroke="rgb(233,233,233)" stroke-opacity="1.0" stroke-width="1.0">
        </line>
        <line x1="0.0" y1="172.0" x2="545.0387890890636" y2="172.0" stroke="rgb(233,233,233)" stroke-opacity="1.0" stroke-width="1.0">
        </line>
        <line x1="0.0" y1="119.87878787878788" x2="545.0387890890636" y2="119.87878787878788" stroke="rgb(233,233,233)" stroke-opacity="1.0" stroke-width="1.0">
        </line>
        <line x1="0.0" y1="67.75757575757575" x2="545.0387890890636" y2="67.75757575757575" stroke="rgb(233,233,233)" stroke-opacity="1.0" stroke-width="1.0">
        </line>
        <line x1="0.0" y1="15.636363636363626" x2="545.0387890890636" y2="15.636363636363626" stroke="rgb(233,233,233)" stroke-opacity="1.0" stroke-width="1.0">
        </line>
        <g transform="translate(0.0 328.3636363636364 ) ">
          <g transform="translate(-3.0 0.0 ) ">
            <text class="axis-text-y" text-anchor="end" dy="0.35em">
            0
            </text>
          </g>
        </g>
        <g transform="translate(0.0 276.24242424242425 ) ">
          <g transform="translate(-3.0 0.0 ) ">
            <text class="axis-text-y" text-anchor="end" dy="0.35em">
            2
            </text>
          </g>
        </g>
        <g transform="translate(0.0 224.12121212121212 ) ">
          <g transform="translate(-3.0 0.0 ) ">
            <text class="axis-text-y" text-anchor="end" dy="0.35em">
            4
            </text>
          </g>
        </g>
        <g transform="translate(0.0 172.0 ) ">
          <g transform="translate(-3.0 0.0 ) ">
            <text class="axis-text-y" text-anchor="end" dy="0.35em">
            6
            </text>
          </g>
        </g>
        <g transform="translate(0.0 119.87878787878788 ) ">
          <g transform="translate(-3.0 0.0 ) ">
            <text class="axis-text-y" text-anchor="end" dy="0.35em">
            8
            </text>
          </g>
        </g>
        <g transform="translate(0.0 67.75757575757575 ) ">
          <g transform="translate(-3.0 0.0 ) ">
            <text class="axis-text-y" text-anchor="end" dy="0.35em">
            10
            </text>
          </g>
        </g>
        <g transform="translate(0.0 15.636363636363626 ) ">
          <g transform="translate(-3.0 0.0 ) ">
            <text class="axis-text-y" text-anchor="end" dy="0.35em">
            12
            </text>
          </g>
        </g>
      </g>
      <g transform="translate(21.961210910936405 0.0 ) " clip-path="url(#cfIzF5d)" clip-bounds-jfx="[rect (0.0, 0.0), (545.0387890890636, 344.0)]">
        <defs>
          <clipPath id="cfIzF5d">
            <rect x="0.0" y="0.0" width="545.0387890890636" height="344.0">
            </rect>
          </clipPath>
        </defs>
        <g transform="rotate(0.0 272.5193945445318 328.3636363636364 ) ">
          <path d="M297.94142394956333 338.3636363636364 C297.94142394956333 338.3636363636364 297.94142394956333 338.3636363636364 297.94142394956333 338.3636363636364 L297.94142394956333 318.3636363636364 C297.94142394956333 318.3636363636364 297.94142394956333 318.3636363636364 297.94142394956333 318.3636363636364 L247.09736513950025 318.3636363636364 C247.09736513950025 318.3636363636364 247.09736513950025 318.3636363636364 247.09736513950025 318.3636363636364 L247.09736513950025 338.3636363636364 C247.09736513950025 338.3636363636364 247.09736513950025 338.3636363636364 247.09736513950025 338.3636363636364 Z" stroke="rgb(61,61,61)" stroke-opacity="1.0" fill="rgb(255,255,255)" fill-opacity="1.0" stroke-width="1.0">
          </path>
          <g transform="translate(272.5193945445318 334.3636363636364 ) ">
            <text style="fill:#3d3d3d;font-size:20.0px;font-family:Arial;" y="0.0" text-anchor="middle">
            Arial
            </text>
          </g>
        </g>
        <g transform="rotate(0.0 272.5193945445318 302.3030303030303 ) ">
          <path d="M304.4483693514194 312.3030303030303 C304.4483693514194 312.3030303030303 304.4483693514194 312.3030303030303 304.4483693514194 312.3030303030303 L304.4483693514194 292.3030303030303 C304.4483693514194 292.3030303030303 304.4483693514194 292.3030303030303 304.4483693514194 292.3030303030303 L240.59041973764423 292.3030303030303 C240.59041973764423 292.3030303030303 240.59041973764423 292.3030303030303 240.59041973764423 292.3030303030303 L240.59041973764423 312.3030303030303 C240.59041973764423 312.3030303030303 240.59041973764423 312.3030303030303 240.59041973764423 312.3030303030303 Z" stroke="rgb(61,61,61)" stroke-opacity="1.0" fill="rgb(255,255,255)" fill-opacity="1.0" stroke-width="1.0">
          </path>
          <g transform="translate(272.5193945445318 308.3030303030303 ) ">
            <text style="fill:#3d3d3d;font-size:20.0px;font-family:Calibri;" y="0.0" text-anchor="middle">
            Calibri
            </text>
          </g>
        </g>
        <g transform="rotate(0.0 272.5193945445318 276.24242424242425 ) ">
          <path d="M318.28006694684564 286.24242424242425 C318.28006694684564 286.24242424242425 318.28006694684564 286.24242424242425 318.28006694684564 286.24242424242425 L318.28006694684564 266.24242424242425 C318.28006694684564 266.24242424242425 318.28006694684564 266.24242424242425 318.28006694684564 266.24242424242425 L226.7587221422179 266.24242424242425 C226.7587221422179 266.24242424242425 226.7587221422179 266.24242424242425 226.7587221422179 266.24242424242425 L226.7587221422179 286.24242424242425 C226.7587221422179 286.24242424242425 226.7587221422179 286.24242424242425 226.7587221422179 286.24242424242425 Z" stroke="rgb(61,61,61)" stroke-opacity="1.0" fill="rgb(255,255,255)" fill-opacity="1.0" stroke-width="1.0">
          </path>
          <g transform="translate(272.5193945445318 282.24242424242425 ) ">
            <text style="fill:#3d3d3d;font-size:20.0px;font-family:Garamond;" y="0.0" text-anchor="middle">
            Garamond
            </text>
          </g>
        </g>
        <g transform="rotate(0.0 272.5193945445318 250.1818181818182 ) ">
          <path d="M311.95670743267027 260.1818181818182 C311.95670743267027 260.1818181818182 311.95670743267027 260.1818181818182 311.95670743267027 260.1818181818182 L311.95670743267027 240.1818181818182 C311.95670743267027 240.1818181818182 311.95670743267027 240.1818181818182 311.95670743267027 240.1818181818182 L233.0820816563933 240.1818181818182 C233.0820816563933 240.1818181818182 233.0820816563933 240.1818181818182 233.0820816563933 240.1818181818182 L233.0820816563933 260.1818181818182 C233.0820816563933 260.1818181818182 233.0820816563933 260.1818181818182 233.0820816563933 260.1818181818182 Z" stroke="rgb(61,61,61)" stroke-opacity="1.0" fill="rgb(255,255,255)" fill-opacity="1.0" stroke-width="1.0">
          </path>
          <g transform="translate(272.5193945445318 256.1818181818182 ) ">
            <text style="fill:#3d3d3d;font-size:20.0px;font-family:Geneva;" y="0.0" text-anchor="middle">
            Geneva
            </text>
          </g>
        </g>
        <g transform="rotate(0.0 272.5193945445318 224.12121212121212 ) ">
          <path d="M313.53323639081054 234.12121212121212 C313.53323639081054 234.12121212121212 313.53323639081054 234.12121212121212 313.53323639081054 234.12121212121212 L313.53323639081054 214.12121212121212 C313.53323639081054 214.12121212121212 313.53323639081054 214.12121212121212 313.53323639081054 214.12121212121212 L231.50555269825304 214.12121212121212 C231.50555269825304 214.12121212121212 231.50555269825304 214.12121212121212 231.50555269825304 214.12121212121212 L231.50555269825304 234.12121212121212 C231.50555269825304 234.12121212121212 231.50555269825304 234.12121212121212 231.50555269825304 234.12121212121212 Z" stroke="rgb(61,61,61)" stroke-opacity="1.0" fill="rgb(255,255,255)" fill-opacity="1.0" stroke-width="1.0">
          </path>
          <g transform="translate(272.5193945445318 230.12121212121212 ) ">
            <text style="fill:#3d3d3d;font-size:20.0px;font-family:Georgia;" y="0.0" text-anchor="middle">
            Georgia
            </text>
          </g>
        </g>
        <g transform="rotate(0.0 272.5193945445318 198.06060606060606 ) ">
          <path d="M322.49713304331163 208.06060606060606 C322.49713304331163 208.06060606060606 322.49713304331163 208.06060606060606 322.49713304331163 208.06060606060606 L322.49713304331163 188.06060606060606 C322.49713304331163 188.06060606060606 322.49713304331163 188.06060606060606 322.49713304331163 188.06060606060606 L222.54165604575195 188.06060606060606 C222.54165604575195 188.06060606060606 222.54165604575195 188.06060606060606 222.54165604575195 188.06060606060606 L222.54165604575195 208.06060606060606 C222.54165604575195 208.06060606060606 222.54165604575195 208.06060606060606 222.54165604575195 208.06060606060606 Z" stroke="rgb(61,61,61)" stroke-opacity="1.0" fill="rgb(255,255,255)" fill-opacity="1.0" stroke-width="1.0">
          </path>
          <g transform="translate(272.5193945445318 204.06060606060606 ) ">
            <text style="fill:#3d3d3d;font-size:20.0px;font-family:Helvetica;" y="0.0" text-anchor="middle">
            Helvetica
            </text>
          </g>
        </g>
        <g transform="rotate(0.0 272.5193945445318 172.0 ) ">
          <path d="M348.2204710864455 182.0 C348.2204710864455 182.0 348.2204710864455 182.0 348.2204710864455 182.0 L348.2204710864455 162.0 C348.2204710864455 162.0 348.2204710864455 162.0 348.2204710864455 162.0 L196.81831800261807 162.0 C196.81831800261807 162.0 196.81831800261807 162.0 196.81831800261807 162.0 L196.81831800261807 182.0 C196.81831800261807 182.0 196.81831800261807 182.0 196.81831800261807 182.0 Z" stroke="rgb(61,61,61)" stroke-opacity="1.0" fill="rgb(255,255,255)" fill-opacity="1.0" stroke-width="1.0">
          </path>
          <g transform="translate(272.5193945445318 178.0 ) ">
            <text style="fill:#3d3d3d;font-size:20.0px;font-family:Lucida Grande;" y="0.0" text-anchor="middle">
            Lucida Grande
            </text>
          </g>
        </g>
        <g transform="rotate(0.0 272.5193945445318 145.93939393939394 ) ">
          <path d="M322.77322402434874 155.93939393939394 C322.77322402434874 155.93939393939394 322.77322402434874 155.93939393939394 322.77322402434874 155.93939393939394 L322.77322402434874 135.93939393939394 C322.77322402434874 135.93939393939394 322.77322402434874 135.93939393939394 322.77322402434874 135.93939393939394 L222.26556506471485 135.93939393939394 C222.26556506471485 135.93939393939394 222.26556506471485 135.93939393939394 222.26556506471485 135.93939393939394 L222.26556506471485 155.93939393939394 C222.26556506471485 155.93939393939394 222.26556506471485 155.93939393939394 222.26556506471485 155.93939393939394 Z" stroke="rgb(61,61,61)" stroke-opacity="1.0" fill="rgb(255,255,255)" fill-opacity="1.0" stroke-width="1.0">
          </path>
          <g transform="translate(272.5193945445318 151.93939393939394 ) ">
            <text style="fill:#3d3d3d;font-size:20.0px;font-family:Rockwell;" y="0.0" text-anchor="middle">
            Rockwell
            </text>
          </g>
        </g>
        <g transform="rotate(0.0 272.5193945445318 119.87878787878788 ) ">
          <path d="M358.45968638672264 129.87878787878788 C358.45968638672264 129.87878787878788 358.45968638672264 129.87878787878788 358.45968638672264 129.87878787878788 L358.45968638672264 109.87878787878788 C358.45968638672264 109.87878787878788 358.45968638672264 109.87878787878788 358.45968638672264 109.87878787878788 L186.5791027023409 109.87878787878788 C186.5791027023409 109.87878787878788 186.5791027023409 109.87878787878788 186.5791027023409 109.87878787878788 L186.5791027023409 129.87878787878788 C186.5791027023409 129.87878787878788 186.5791027023409 129.87878787878788 186.5791027023409 129.87878787878788 Z" stroke="rgb(61,61,61)" stroke-opacity="1.0" fill="rgb(255,255,255)" fill-opacity="1.0" stroke-width="1.0">
          </path>
          <g transform="translate(272.5193945445318 125.87878787878788 ) ">
            <text style="fill:#3d3d3d;font-size:20.0px;font-family:Times New Roman;" y="0.0" text-anchor="middle">
            Times New Roman
            </text>
          </g>
        </g>
        <g transform="rotate(0.0 272.5193945445318 93.81818181818181 ) ">
          <path d="M319.7821521827523 103.81818181818181 C319.7821521827523 103.81818181818181 319.7821521827523 103.81818181818181 319.7821521827523 103.81818181818181 L319.7821521827523 83.81818181818181 C319.7821521827523 83.81818181818181 319.7821521827523 83.81818181818181 319.7821521827523 83.81818181818181 L225.25663690631126 83.81818181818181 C225.25663690631126 83.81818181818181 225.25663690631126 83.81818181818181 225.25663690631126 83.81818181818181 L225.25663690631126 103.81818181818181 C225.25663690631126 103.81818181818181 225.25663690631126 103.81818181818181 225.25663690631126 103.81818181818181 Z" stroke="rgb(61,61,61)" stroke-opacity="1.0" fill="rgb(255,255,255)" fill-opacity="1.0" stroke-width="1.0">
          </path>
          <g transform="translate(272.5193945445318 99.81818181818181 ) ">
            <text style="fill:#3d3d3d;font-size:20.0px;font-family:Verdana;" y="0.0" text-anchor="middle">
            Verdana
            </text>
          </g>
        </g>
        <g transform="rotate(0.0 272.5193945445318 67.75757575757575 ) ">
          <path d="M327.19994001861835 77.75757575757575 C327.19994001861835 77.75757575757575 327.19994001861835 77.75757575757575 327.19994001861835 77.75757575757575 L327.19994001861835 57.75757575757575 C327.19994001861835 57.75757575757575 327.19994001861835 57.75757575757575 327.19994001861835 57.75757575757575 L217.8388490704453 57.75757575757575 C217.8388490704453 57.75757575757575 217.8388490704453 57.75757575757575 217.8388490704453 57.75757575757575 L217.8388490704453 77.75757575757575 C217.8388490704453 77.75757575757575 217.8388490704453 77.75757575757575 217.8388490704453 77.75757575757575 Z" stroke="rgb(61,61,61)" stroke-opacity="1.0" fill="rgb(255,255,255)" fill-opacity="1.0" stroke-width="1.0">
          </path>
          <g transform="translate(272.5193945445318 73.75757575757575 ) ">
            <text style="fill:#3d3d3d;font-size:20.0px;font-family:sans-serif;" y="0.0" text-anchor="middle">
            sans-serif
            </text>
          </g>
        </g>
        <g transform="rotate(0.0 272.5193945445318 41.69696969696969 ) ">
          <path d="M296.5053036514329 51.69696969696969 C296.5053036514329 51.69696969696969 296.5053036514329 51.69696969696969 296.5053036514329 51.69696969696969 L296.5053036514329 31.69696969696969 C296.5053036514329 31.69696969696969 296.5053036514329 31.69696969696969 296.5053036514329 31.69696969696969 L248.5334854376307 31.69696969696969 C248.5334854376307 31.69696969696969 248.5334854376307 31.69696969696969 248.5334854376307 31.69696969696969 L248.5334854376307 51.69696969696969 C248.5334854376307 51.69696969696969 248.5334854376307 51.69696969696969 248.5334854376307 51.69696969696969 Z" stroke="rgb(61,61,61)" stroke-opacity="1.0" fill="rgb(255,255,255)" fill-opacity="1.0" stroke-width="1.0">
          </path>
          <g transform="translate(272.5193945445318 47.69696969696969 ) ">
            <text style="fill:#3d3d3d;font-size:20.0px;font-family:serif;" y="0.0" text-anchor="middle">
            serif
            </text>
          </g>
        </g>
        <g transform="rotate(0.0 272.5193945445318 15.636363636363626 ) ">
          <path d="M326.5193945445318 25.636363636363626 C326.5193945445318 25.636363636363626 326.5193945445318 25.636363636363626 326.5193945445318 25.636363636363626 L326.5193945445318 5.636363636363626 C326.5193945445318 5.636363636363626 326.5193945445318 5.636363636363626 326.5193945445318 5.636363636363626 L218.5193945445318 5.636363636363626 C218.5193945445318 5.636363636363626 218.5193945445318 5.636363636363626 218.5193945445318 5.636363636363626 L218.5193945445318 25.636363636363626 C218.5193945445318 25.636363636363626 218.5193945445318 25.636363636363626 218.5193945445318 25.636363636363626 Z" stroke="rgb(61,61,61)" stroke-opacity="1.0" fill="rgb(255,255,255)" fill-opacity="1.0" stroke-width="1.0">
          </path>
          <g transform="translate(272.5193945445318 21.636363636363626 ) ">
            <text style="fill:#3d3d3d;font-size:20.0px;font-family:monospace;" y="0.0" text-anchor="middle">
            monospace
            </text>
          </g>
        </g>
      </g>
    </g>
    <g transform="translate(14.5 182.0 ) rotate(-90.0 ) ">
      <text class="axis-title-y" y="0.0" text-anchor="middle">
      y
      </text>
    </g>
    <g transform="translate(317.4806054554682 391.5 ) ">
      <text class="axis-title-x" y="0.0" text-anchor="middle">
      x
      </text>
    </g>
  </g>
  <g id="dMkJuxN">
  </g>
</svg>